# xmcd
#
# Track frame offsets:
#	150
#	14281
#	34501
#	46361
#	57477
#	69810
#	80985
#	92523
#	110533
#	123286
#	138225
#	151994
#	162520
#	175004
#	194926
#	210830
#	222704
#	237673
#
# Disc length: 3320
#
# Revision: 1
# Processed by: cddbd v1.5.1PL0 Copyright (c) Steve Scherf et al.
# Submitted via: CdAid (MTCDDB.DLL V2003.12.21)
# Normalized: r0:DSETVAR1
#
DISCID=010cf612
DTITLE=Various Artist - More Pure Country CD1
DYEAR=1990
DGENRE=Other
TTITLE0=John Denver - Annie's Song (Live)
TTITLE1=Gram Parons and Emmylou Harris - Love Hurts
TTITLE2=Don Gibson - I Can't Stop Loving You
TTITLE3=Stella Parton - A Woman's Touch
TTITLE4=Bobby Helms - Fraulein
TTITLE5=Don Williams - Follow Me Back To Louisville
TTITLE6=Brenda Lee - Silver Threads And Golden Needles (Live)
TTITLE7=Ricky Nelson - Garden Party
TTITLE8=Connie Francis - Tennessee Waltz
TTITLE9=Willy Nelson - Face Of A Fighter
TTITLE10=Barbara Fairchild - Crazy Love
TTITLE11=Everly Brothers - All I Have To Do Is Dream
TTITLE12=Ann Murray - I Just Fall In Love Again
TTITLE13=Glenn Campbell - Wichita Lineman - Galveston - Country Boy (Medley)
TTITLE14=Billie Jo Spears - Queen Of The Silver Dollar
TTITLE15=Telly Savalas - Some Broken Hearts Never Mend
TTITLE16=Lee Greenwood and La Toya Jackson - What You Don't Say
TTITLE17=Freddy Fender - Before The Next Teardrop Falls
EXTD=ID3G:  12 YEAR: 1990
EXTT0=
EXTT1=
EXTT2=
EXTT3=
EXTT4=
EXTT5=
EXTT6=
EXTT7=
EXTT8=
EXTT9=
EXTT10=
EXTT11=
EXTT12=
EXTT13=
EXTT14=
EXTT15=
EXTT16=
EXTT17=
PLAYORDER=
